#define arrow_width 16
#define arrow_height 16
static unsigned char arrow_bits[] = {
   0x00, 0x00, 0x10, 0x00, 0x30, 0x00, 0x70, 0x00, 0xf0, 0x00, 0xf0, 0x01,
   0xf0, 0x03, 0xf0, 0x07, 0xf0, 0x0f, 0xf0, 0x01, 0xb0, 0x01, 0x10, 0x03,
   0x00, 0x03, 0x00, 0x06, 0x00, 0x06, 0x00, 0x00};
