#define moveang_width 16
#define moveang_height 16
static unsigned char moveang_bits[] = {
   0x03, 0x00, 0x03, 0x00, 0x03, 0x20, 0x03, 0x10, 0x03, 0x08, 0x03, 0x00,
   0x03, 0x3e, 0x03, 0x3e, 0x83, 0x06, 0x43, 0x36, 0x23, 0x36, 0x13, 0x60,
   0x0b, 0x60, 0x07, 0x00, 0xff, 0xff, 0xff, 0xff};
