#define movexy_width 16
#define movexy_height 16
static unsigned char movexy_bits[] = {
   0x80, 0x01, 0xc0, 0x03, 0xe0, 0x07, 0x00, 0x00, 0x80, 0x01, 0x84, 0x21,
   0x86, 0x61, 0xf7, 0xef, 0xf7, 0xef, 0x86, 0x61, 0x84, 0x21, 0x80, 0x01,
   0x00, 0x00, 0xe0, 0x07, 0xc0, 0x03, 0x80, 0x01};
