#define movemag_width 16
#define movemag_height 16
static unsigned char movemag_bits[] = {
   0x03, 0x00, 0x03, 0x40, 0x03, 0x20, 0x03, 0x1f, 0x03, 0x1f, 0x03, 0x18,
   0x03, 0x1b, 0xb3, 0x1b, 0xb3, 0x01, 0x33, 0x00, 0xf3, 0x01, 0xf3, 0x01,
   0x0b, 0x00, 0x07, 0x00, 0xff, 0xff, 0xff, 0xff};
