/* XPM */
static char * polarbear_xpm[] = {
"100 70 17 1",
" 	c None",
".	c #050505",
"+	c #262626",
"@	c #484848",
"#	c #7F7F7F",
"$	c #999999",
"%	c #C3C3C3",
"&	c #D0D0D0",
"*	c #D8D8D8",
"=	c #E0E0E0",
"-	c #E6E6E6",
";	c #EAEAEA",
">	c #EEEEEE",
",	c #F2F2F2",
"'	c #646464",
")	c #B0B0B0",
"!	c #FEFEFE",
"                                                                                                    ",
"                                                                                                    ",
"                                                                                                    ",
"                                                         %&====&&&&&%                               ",
"                                                     &*,,!!!!!!!!!!!!>*%                            ",
"                                                 %&=>!!!!!!!!!!!!!!!!!!,*%                          ",
"                                               %=!!!!!!!!!!!!!!!!!!!!!!!!!=                         ",
"                                      &***&==,!!!!!!!!!!!!!!!!!!!!!!!!!!!!!,=%                      ",
"                                **;;;,!!!!!!!!!!!!!!!!!!!!!!!!!!!!!!!!!!!!!!!!=%                    ",
"                              &,!!!!!!!!!!!!!!!!!!!!!!!!!!!!!!!!!!!!!!!!!!!!!!!,*%                  ",
"                           %*,!!!!!!!!!!!!!!!!!!!!!!!!!!!!!!!!!!!!!!!!!!!!!!!!!!!!=%                ",
"                        %=,!!!!!!!!!!!!!!!!!!!!!!!!!!!!!!!!!!!!!!!!!!!!!!!!!!!!!!!!,*               ",
"                      &;!!!!!!!!!!!!!!!!!!!!!!!!!!!!!!!!!!!!!!!!!!!!!!!!!!!!!!!!!!!!!*              ",
"                   &-,!!!!!!!!!!!!!!!!!!!!!!!!!!!!!!!!!!!!!!!!!!!!!!!!!!!!!!!!!!!!!!!!,%            ",
"                %-!!!!!!!!!!!!!!!!!!!!!!!!!!!!!!!!!!!!!!!!!!!!!!!!!!!!!!!!!!!!!!!!!!!!!!*           ",
"              &-!!!!!!!!!!!!!!!!!!!!!!!!!!!!!!!!!!!!!!!!!!!!!!!!!!!!!!!!!!!!!!!!!!!!!!!!!;%         ",
"      )*&   );!!!!!!!!!!!!!!!!!!!!!!!!!!!!!!!!!!!!!!!!!!!!!!!!!!!!!!!!!!!!!!!!!!!!!!!!!!!!;         ",
"     );!!*&=,!!!!!!!!!!!!!!!!!!!!!!!!!!!!!!!!!!!!!!!!!!!!!!!!!!!!!!!!!!!!!!!!!!!!!!!!!!!!!!&        ",
"     %,##,!!!!!!!!!!,')!!!!!!!!!!!!!!!!!!!!!!!!!!!!!!!!!!!!!!!!!!!!!!!!!!!!!!!!!!!!!!!!!!!!>        ",
"     )>@+=!!!!!!!!!!;.#!!!!!!!!!!!!!!!!!!!!!!!!!!!!!!!!!!!!!!!!!!!!!!!!!!!!!!!!!!!!!!!!!!!!!;%      ",
"      *#'!!!!!!!!!!!,+$!!!!!!!!!!!!!!!!!!!!!!!!!!!!!!!!!!!!!!!!!!!!!!!!!!!!!!!!!!!!!!!!!!!!!!>      ",
"       -,!!!!!!!!!!!!*,!!!!!!!!!!!!!!!!!!!!!!!!!!!!!!!!!!!!!!!!!!!!!!!!!!!!!!!!!!!!!!!!!!!!!!!&     ",
"       >!!!!!!!!!!!!!!!!!!!!!!!!!!!!!!!!!!!!!!!!!!!!!!!!!!!!!!!!!!!!!!!!!!!!!!!!!!!!!!!!!!!!!!;     ",
"      &!!!!!!!!!!!!!!!!!!!!!!!!!!!!!!!!!!!!!!!!!!!!!!!!!!!!!!!!!!!!!!!!!!!!!!!!!!!!!!!!!!!!!!!,     ",
"      -!!!!!!!!!!!!!!!=-!!!!!!!!!!!!!!!!!!!!!!!!!!!!!!!!!!!!!!!!!!!!!!!!!!!!!!!!!!!!!!!!!!!!!!,     ",
"      ,!!!!!!!!!!!!!!!#'!!!!!!!!!!!!!!!!!!!!!!!!!!!!!!!!!!!!!!!!!!!!!!!!!!!!!!!!!!!!!!!!!!!!!!,     ",
"     #',!!!!#@,!!!!!!!$@!!!!!!!!!!!!!!!!!!!!!!!!!!!!!!!!!!!!!!!!!!!!!!!!!!!!!!!!!!!!!!!!!!!!!!!*    ",
"     #+;!!!!##!!!!!!!!)@!!!!!!!!!!!!!!!!!!!!!!!!!!!!!!!!!!!!!!!!!!!!!!!!!!!!!!!!!!!!!!!!!!!!!!!!%   ",
"      %!!!!!!!!!!!!!!!$@!!!!!)&!!!!!!!!!!!!!!!!!!!!!!!!!!!!!!!!!!!!!!!!!!!!!!!!!!!!!!!!!!!!!!!!!&   ",
"      =!!!!!!!!!!!!!!*+#!!!!>+$!!!!!!!!!!!!!!!!!!!!!!!!!!!!!!!!!!!!!!!!!!!!!!!!!!!!!!!!!!!!!!!!!=   ",
"      ,!!!!!!!!!!!!!!'@;!!!!$.&!!!!!!!!!!!!!!!!!!!!!!!!!!!!!!!!!!!!!!!!!!!!!!!!!!!!!!!!!!!!!!!!!=   ",
"     &!!!!!!!!!!!!!!=+)!!!!$.#!!!!!!!!!!!!!!!!!!!!!!!!!!!!!!!!!!!!!!!!!!!!!!!!!!!!!!!!!!!!!!!!!!>   ",
"     >!!!!!!!!!!!!!!,%,!!!!)),!!!!!!!!!!!!!!!!!!!!!!!!!!!!!!!!!!!!!!!!!!!!!!!!!!!!!!!!!!!!!!!!!!>   ",
"    $$)=!!!!!!!!!!-&  %*,,!!!!!!!!!!!!!!!!!!!)%!!!!!!!!!!!!!!!!!!!!!!!!!!!!!!!!!!!!!!!!!!!!!!!!!>   ",
"    +..+&!!!!!!!!*        @@,!!!!!!!!!!!!!!!!#@!!!!!!!!!!!!!!!!!!!!!!!!!!!!!!!!!!!!!!!!!!!!!!!!!>   ",
"    @...&!!!!!!,&         ++,!!!!!!!!!!!!!!!!%+,!!!!!!!!!!!!!!!!!!!!!!!!!!!!!!!!!!!!!!!!!!!!!!!!>   ",
"     @.#>>$',!>%          @+,!!!!!!!!!!!!!!!!%+,!!!!!!!!!!!!!!!!!!!!!!!!&;!!!!!!!!!!!!!!!!!!!!!!>   ",
"     $+++++$,*            ''!!!!!!!!!!!!!!!!!&+,!!!!!!!!!!!!!!!!!!!!!!!!@)!!!!!!!!!!!!!!!!!!!!!!>   ",
"      $$)$%=%             #'!!!!!!!!!!!!!!!!!&+,!!!!!!!!!!!!!!!!!!!!!!!!@)!!!!!!!!!!!!!!!!!!!!!!&   ",
"                           #!!!!!!!!!!!!!!!!!$+,!!!!!!!!!!!!!!!!!!!!!!!,+)!!!!!!!!!!!!!!!!!!!!!,    ",
"                           #!!!!!!!!!!!!!!!!!@#!!!!!!!!!!!!!!!!!!!!!!!!,+)!!!!!!!!!!!!!!!!!!!!!=    ",
"                           @-!!!!!!!!!!!!!!!,+)!!!!!!!!!!!!!!!!!!!!!!!!,+)!!!!!!!!!!!!!!!!!!!!!&    ",
"                           +$!!!!!!!!!!!!!!!;+%!,;;;;>!!!!!!!!!!!!!!!!!>+)!!!!!!!!!!!!!!!!!!!!!&    ",
"                          '.'!!!!!!!!!!!!!!!=+&%       %=>!!!!!!!!!!!!!,+$!!!!!!!!!!!!!!!!!!!!!&    ",
"                         #+.'!!!!!!!!!!!!!!!!*             &&=;!!!!!!!!!''!!!!!!!!!!!!!!!!!!!!,     ",
"                         +..'!!!!!!!!!!!!!!!!=                  &&======$+;!!!!!!!!!!!!!!!!!!!*     ",
"                        @...$!!!!!!!!!!!!!!!!%                          @.#,!!!!!!!!!!!!!!!!!;      ",
"                       #...+-!!!!!!!!!!!!!!!!                           #..$!!!!!!!!!!!!!!!!!%      ",
"                      $+...@!!!!!!!!!!!!!!!!;                            +.+,!!!!!!!!!!!!!!!!       ",
"                      @....'!!!!!!!!!!!!!!!!;                            @..&!!!!!!!!!!!!!!!-       ",
"                     '.....#!!!!!!!!!!!!!!!!*                            '..'!!!!!!!!!!!!!!!-       ",
"                    #+.....)!!!!!!!!!!!!!!!!*                            #..+*!!!!!!!!!!!!!!=       ",
"                   $+.....+,!!!!!!!!!!!!!!!!%                             @..#!!!!!!!!!!!!!!&       ",
"                   '......$!!!!!!!!!!!!!!!!!                              #..@!!!!!!!!!!!!!!*       ",
"                   @.....@,!!!!!!!!!!!!!!!!,                               @.@!!!!!!!!!!!!!!%       ",
"                  #+.....%!!!!!!!!!!!!!!!!!;                               @.+,!!!!!!!!!!!!!        ",
"                  '.....+;!!!!!!!!!!!!!!!!!*                               @..=!!!!!!!!!!!!!        ",
"                  #+....%!!!!!!!!!!!!!!!!!!&                               @.+,!!!!!!!!!!!!!        ",
"                   #'@+)!!!!!!!!!!!!!!!!!!>                                @.$!!!!!!!!!!!!!!        ",
"                      %!!!!!!!!!!!!!!!!!!!*                               '+$!!!!!!!!!!!!!!!        ",
"                      -!!!!!!!!!!!!!!!!!!!%                             $@+$!!!!!!!!!!!!!!!!        ",
"                      -!!!!!!!!!!!!!!!!!!=                              '.$!!!!!!!!!!!!!!!!;        ",
"                      %=,!!!!!!!!!!!!!!!;%                              ++-!!!!!!!!!!!!!!!!*        ",
"                         &;!!!!!!!!=&&%                                 +@,!!!!!!!!!!!!!!!-         ",
"                             %&&&&                                       $&=;;;;>!!!!!!!!-          ",
"                                                                                 %&&&&&&%           ",
"                                                                                                    ",
"                                                                                                    ",
"                                                                                                    ",
"                                                                                                    "};
